<svg xmlns="http://www.w3.org/2000/svg" viewBox="0 0 512 512" role="img" aria-label="Eyedrive">
  <defs>
    <linearGradient id="g" x1="0.5" y1="0" x2="0.5" y2="1">
      <stop offset="0%" stop-color="#9B7BF7"/>
      <stop offset="55%" stop-color="#7C4DFF"/>
      <stop offset="100%" stop-color="#6D28D9"/>
    </linearGradient>
  </defs>
  <rect width="512" height="512" rx="112" fill="url(#g)"/>
  <g transform="translate(256 279) scale(8.32) translate(-12 -12)" fill="#fff" fill-opacity="0.92" stroke="none">
    <path d="M18 10h-1.5A3.5 3.5 0 0 0 7 9a4 4 0 0 0-1.2 7.8A2.5 2.5 0 0 0 8.5 22H16a4 4 0 0 0 0-8z"/>
  </g>
  <g transform="translate(256 253) scale(6.61) translate(-12 -12)" fill="none" stroke="#fff" stroke-width="1.85" stroke-linecap="round" stroke-linejoin="round">
    <path d="M1 12s4-6.5 11-6.5 10 6.5 10 6.5-4 6.5-10 6.5S1 12 1 12Z"/>
    <circle cx="12" cy="12" r="2.75" fill="#fff" stroke="none"/>
  </g>
</svg>
