<svg xmlns="http://www.w3.org/2000/svg" viewBox="0 0 512 512" role="img" aria-label="Eyedrive">
  <defs>
    <linearGradient id="g" x1="0.5" y1="0" x2="0.5" y2="1">
      <stop offset="0%" stop-color="#9B7BF7"/>
      <stop offset="55%" stop-color="#7C4DFF"/>
      <stop offset="100%" stop-color="#6D28D9"/>
    </linearGradient>
  </defs>
  <rect width="512" height="512" rx="112" fill="url(#g)"/>
  <g transform="translate(256 268.8) scale(16.64) translate(-12 -12)">
    <path d="M2.4 12.6C2.4 10.2 3.8 8.2 5.9 7.1C6.7 5.9 7.9 4.9 9.3 4.4C10.4 3.6 11.2 3.2 12 3.2C12.8 3.2 13.6 3.6 14.7 4.4C16.1 4.9 17.3 5.9 18.1 7.1C20.2 8.2 21.6 10.2 21.6 12.6C21.6 14.4 20.5 16 18.9 16.7C18 18.3 16.2 19.2 14.2 19.5C13.2 19.75 12.8 19.85 12 19.85C11.2 19.85 10.8 19.75 9.8 19.5C7.8 19.2 6 18.3 5.1 16.7C3.5 16 2.4 14.4 2.4 12.6Z" fill="#fff" fill-opacity="0.16" stroke="#fff" stroke-width="1.25" stroke-linejoin="round"/>
    <circle cx="12" cy="12.9" r="2.55" fill="#fff" stroke="none"/>
  </g>
</svg>
